<svg xmlns="http://www.w3.org/2000/svg" xmlns:xlink="http://www.w3.org/1999/xlink" width="500" zoomAndPan="magnify" viewBox="0 0 375 374.999991" height="500" preserveAspectRatio="xMidYMid meet" version="1.0"><defs><g/><clipPath id="3c0a03140a"><path d="M 7.914062 131.769531 L 74.664062 131.769531 L 74.664062 198.519531 L 7.914062 198.519531 Z M 7.914062 131.769531 " clip-rule="nonzero"/></clipPath><clipPath id="c06a4ffbf1"><path d="M 73.832031 210.316406 L 106.832031 210.316406 L 106.832031 243.316406 L 73.832031 243.316406 Z M 73.832031 210.316406 " clip-rule="nonzero"/></clipPath><clipPath id="d7f613448a"><path d="M 58.011719 131.769531 L 73.921875 131.769531 L 73.921875 147.679688 L 58.011719 147.679688 Z M 58.011719 131.769531 " clip-rule="nonzero"/></clipPath><clipPath id="f39bd1cf4e"><path d="M 65.964844 131.769531 C 61.570312 131.769531 58.011719 135.332031 58.011719 139.726562 C 58.011719 144.117188 61.570312 147.679688 65.964844 147.679688 C 70.359375 147.679688 73.921875 144.117188 73.921875 139.726562 C 73.921875 135.332031 70.359375 131.769531 65.964844 131.769531 Z M 65.964844 131.769531 " clip-rule="nonzero"/></clipPath></defs><g clip-path="url(#3c0a03140a)"><path fill="#145262" d="M 41.277344 198.496094 C 40.558594 198.496094 39.84375 198.464844 39.128906 198.433594 C 39.039062 198.433594 38.949219 198.347656 38.949219 198.257812 C 38.949219 198.167969 39.039062 198.078125 39.128906 198.078125 C 39.84375 198.136719 40.558594 198.136719 41.277344 198.136719 L 41.304688 198.136719 C 41.394531 198.136719 41.484375 198.226562 41.484375 198.316406 C 41.484375 198.40625 41.394531 198.496094 41.277344 198.496094 Z M 43.484375 198.433594 C 43.394531 198.433594 43.304688 198.375 43.304688 198.257812 C 43.304688 198.167969 43.367188 198.078125 43.484375 198.078125 C 44.199219 198.015625 44.917969 197.957031 45.632812 197.867188 C 45.722656 197.867188 45.8125 197.929688 45.84375 198.015625 C 45.84375 198.105469 45.78125 198.195312 45.691406 198.226562 C 44.945312 198.316406 44.199219 198.375 43.484375 198.433594 Z M 36.980469 198.226562 C 36.234375 198.136719 35.515625 198.015625 34.800781 197.867188 C 34.710938 197.839844 34.652344 197.75 34.652344 197.660156 C 34.679688 197.570312 34.769531 197.511719 34.859375 197.511719 C 35.578125 197.660156 36.292969 197.777344 36.980469 197.867188 C 37.070312 197.867188 37.160156 197.957031 37.128906 198.078125 C 37.160156 198.167969 37.070312 198.226562 36.980469 198.226562 Z M 47.78125 197.867188 C 47.691406 197.867188 47.632812 197.808594 47.601562 197.71875 C 47.574219 197.628906 47.632812 197.539062 47.753906 197.511719 C 48.46875 197.359375 49.15625 197.210938 49.839844 197.03125 C 49.929688 197.003906 50.050781 197.0625 50.050781 197.152344 C 50.078125 197.242188 50.019531 197.359375 49.929688 197.359375 C 49.246094 197.539062 48.527344 197.71875 47.8125 197.867188 C 47.8125 197.867188 47.78125 197.867188 47.78125 197.867188 Z M 32.710938 197.390625 C 32.683594 197.390625 32.683594 197.390625 32.652344 197.390625 C 31.964844 197.210938 31.25 197.003906 30.5625 196.765625 C 30.472656 196.734375 30.414062 196.644531 30.445312 196.527344 C 30.472656 196.4375 30.5625 196.375 30.683594 196.40625 C 31.367188 196.644531 32.054688 196.855469 32.742188 197.03125 C 32.832031 197.0625 32.890625 197.152344 32.859375 197.242188 C 32.859375 197.332031 32.800781 197.390625 32.710938 197.390625 Z M 51.960938 196.734375 C 51.871094 196.734375 51.8125 196.675781 51.78125 196.613281 C 51.75 196.527344 51.8125 196.40625 51.898438 196.375 C 52.585938 196.136719 53.242188 195.898438 53.929688 195.628906 C 54.019531 195.601562 54.136719 195.628906 54.167969 195.71875 C 54.199219 195.808594 54.167969 195.929688 54.078125 195.957031 C 53.421875 196.226562 52.734375 196.496094 52.050781 196.734375 C 52.019531 196.734375 51.988281 196.734375 51.960938 196.734375 Z M 28.625 195.988281 C 28.59375 195.988281 28.5625 195.988281 28.5625 195.988281 C 27.90625 195.71875 27.222656 195.421875 26.5625 195.09375 C 26.476562 195.0625 26.445312 194.945312 26.476562 194.855469 C 26.503906 194.765625 26.625 194.734375 26.714844 194.765625 C 27.371094 195.09375 28.027344 195.390625 28.683594 195.660156 C 28.773438 195.691406 28.832031 195.808594 28.773438 195.898438 C 28.742188 195.957031 28.683594 195.988281 28.625 195.988281 Z M 55.988281 195.0625 C 55.929688 195.0625 55.871094 195.035156 55.839844 194.972656 C 55.808594 194.882812 55.839844 194.765625 55.929688 194.734375 C 56.554688 194.40625 57.210938 194.078125 57.839844 193.71875 C 57.929688 193.660156 58.046875 193.691406 58.078125 193.78125 C 58.136719 193.871094 58.105469 193.988281 58.019531 194.019531 C 57.390625 194.375 56.734375 194.734375 56.109375 195.0625 C 56.019531 195.0625 55.988281 195.0625 55.988281 195.0625 Z M 24.714844 194.078125 C 24.683594 194.078125 24.65625 194.078125 24.625 194.046875 C 23.996094 193.691406 23.371094 193.300781 22.773438 192.882812 C 22.683594 192.824219 22.65625 192.707031 22.714844 192.644531 C 22.773438 192.554688 22.894531 192.527344 22.953125 192.585938 C 23.550781 192.972656 24.175781 193.363281 24.773438 193.71875 C 24.863281 193.78125 24.894531 193.871094 24.832031 193.960938 C 24.832031 194.046875 24.773438 194.078125 24.714844 194.078125 Z M 59.71875 192.914062 C 59.660156 192.914062 59.597656 192.882812 59.570312 192.824219 C 59.511719 192.734375 59.539062 192.617188 59.628906 192.585938 C 60.226562 192.199219 60.824219 191.75 61.390625 191.332031 C 61.480469 191.273438 61.570312 191.273438 61.628906 191.363281 C 61.6875 191.453125 61.6875 191.542969 61.597656 191.601562 C 61.03125 192.050781 60.433594 192.46875 59.839844 192.882812 C 59.808594 192.882812 59.75 192.914062 59.71875 192.914062 Z M 21.101562 191.660156 C 21.074219 191.660156 21.015625 191.660156 20.984375 191.632812 C 20.417969 191.183594 19.851562 190.734375 19.28125 190.257812 C 19.195312 190.199219 19.195312 190.078125 19.253906 189.988281 C 19.3125 189.902344 19.433594 189.902344 19.523438 189.960938 C 20.058594 190.4375 20.625 190.886719 21.191406 191.332031 C 21.28125 191.394531 21.28125 191.511719 21.222656 191.570312 C 21.222656 191.632812 21.164062 191.660156 21.101562 191.660156 Z M 63.179688 190.257812 C 63.121094 190.257812 63.089844 190.230469 63.03125 190.199219 C 62.972656 190.109375 62.972656 190.019531 63.0625 189.929688 C 63.597656 189.453125 64.136719 188.976562 64.644531 188.46875 C 64.703125 188.410156 64.820312 188.410156 64.910156 188.46875 C 64.972656 188.527344 64.972656 188.648438 64.910156 188.738281 C 64.402344 189.242188 63.867188 189.75 63.328125 190.230469 C 63.238281 190.257812 63.210938 190.257812 63.179688 190.257812 Z M 17.851562 188.796875 C 17.789062 188.796875 17.761719 188.765625 17.730469 188.738281 C 17.222656 188.230469 16.714844 187.691406 16.238281 187.15625 C 16.179688 187.066406 16.179688 186.976562 16.269531 186.886719 C 16.359375 186.828125 16.449219 186.828125 16.539062 186.917969 C 17.015625 187.453125 17.523438 187.992188 18.03125 188.496094 C 18.089844 188.558594 18.089844 188.675781 18.03125 188.765625 C 17.941406 188.765625 17.878906 188.796875 17.851562 188.796875 Z M 66.222656 187.183594 C 66.195312 187.183594 66.136719 187.183594 66.105469 187.15625 C 66.015625 187.09375 66.015625 186.976562 66.074219 186.886719 C 66.550781 186.347656 67 185.78125 67.449219 185.214844 C 67.507812 185.125 67.628906 185.125 67.6875 185.183594 C 67.777344 185.246094 67.777344 185.363281 67.714844 185.425781 C 67.269531 185.992188 66.820312 186.558594 66.34375 187.125 C 66.34375 187.183594 66.285156 187.183594 66.222656 187.183594 Z M 14.984375 185.542969 C 14.925781 185.542969 14.867188 185.515625 14.835938 185.484375 C 14.390625 184.917969 13.972656 184.320312 13.554688 183.722656 C 13.492188 183.632812 13.523438 183.515625 13.613281 183.484375 C 13.703125 183.425781 13.820312 183.453125 13.851562 183.542969 C 14.238281 184.140625 14.6875 184.738281 15.105469 185.304688 C 15.164062 185.394531 15.164062 185.484375 15.074219 185.542969 C 15.046875 185.515625 15.015625 185.542969 14.984375 185.542969 Z M 68.878906 183.753906 C 68.851562 183.753906 68.820312 183.753906 68.789062 183.722656 C 68.703125 183.664062 68.671875 183.542969 68.730469 183.484375 C 69.117188 182.886719 69.507812 182.261719 69.863281 181.664062 C 69.925781 181.574219 70.015625 181.542969 70.105469 181.605469 C 70.195312 181.664062 70.222656 181.753906 70.164062 181.84375 C 69.804688 182.46875 69.417969 183.097656 69 183.695312 C 69 183.722656 68.941406 183.753906 68.878906 183.753906 Z M 12.570312 181.933594 C 12.507812 181.933594 12.449219 181.902344 12.417969 181.84375 C 12.0625 181.214844 11.703125 180.558594 11.375 179.933594 C 11.34375 179.84375 11.375 179.722656 11.464844 179.695312 C 11.554688 179.664062 11.671875 179.695312 11.703125 179.785156 C 12.03125 180.410156 12.359375 181.066406 12.71875 181.695312 C 12.777344 181.785156 12.746094 181.902344 12.65625 181.933594 C 12.628906 181.933594 12.597656 181.933594 12.570312 181.933594 Z M 71.058594 179.992188 C 71.027344 179.992188 71 179.992188 70.96875 179.964844 C 70.878906 179.933594 70.851562 179.8125 70.878906 179.722656 C 71.207031 179.066406 71.507812 178.410156 71.773438 177.753906 C 71.804688 177.664062 71.925781 177.605469 72.015625 177.664062 C 72.101562 177.695312 72.164062 177.816406 72.101562 177.902344 C 71.835938 178.5625 71.535156 179.246094 71.207031 179.902344 C 71.179688 179.964844 71.117188 179.992188 71.058594 179.992188 Z M 10.628906 178.054688 C 10.570312 178.054688 10.480469 178.023438 10.449219 177.933594 C 10.179688 177.277344 9.914062 176.589844 9.675781 175.90625 C 9.644531 175.816406 9.703125 175.695312 9.792969 175.664062 C 9.882812 175.636719 10.003906 175.695312 10.03125 175.785156 C 10.269531 176.472656 10.507812 177.128906 10.808594 177.816406 C 10.835938 177.902344 10.808594 178.023438 10.71875 178.054688 C 10.6875 178.054688 10.660156 178.054688 10.628906 178.054688 Z M 72.730469 175.964844 C 72.699219 175.964844 72.699219 175.964844 72.671875 175.964844 C 72.582031 175.933594 72.519531 175.84375 72.550781 175.726562 C 72.789062 175.039062 73 174.351562 73.175781 173.667969 C 73.207031 173.578125 73.296875 173.515625 73.386719 173.546875 C 73.476562 173.578125 73.535156 173.667969 73.503906 173.757812 C 73.328125 174.441406 73.117188 175.160156 72.878906 175.84375 C 72.847656 175.933594 72.789062 175.964844 72.730469 175.964844 Z M 9.226562 173.933594 C 9.136719 173.933594 9.078125 173.875 9.046875 173.816406 C 8.867188 173.128906 8.6875 172.414062 8.539062 171.695312 C 8.511719 171.609375 8.570312 171.519531 8.6875 171.488281 C 8.777344 171.457031 8.867188 171.519531 8.898438 171.636719 C 9.046875 172.351562 9.195312 173.039062 9.375 173.726562 C 9.40625 173.816406 9.34375 173.933594 9.257812 173.933594 C 9.257812 173.933594 9.257812 173.933594 9.226562 173.933594 Z M 73.835938 171.785156 C 73.835938 171.785156 73.804688 171.785156 73.804688 171.785156 C 73.714844 171.757812 73.65625 171.667969 73.65625 171.578125 C 73.804688 170.863281 73.921875 170.144531 74.011719 169.457031 C 74.011719 169.371094 74.101562 169.28125 74.222656 169.308594 C 74.3125 169.308594 74.402344 169.398438 74.371094 169.519531 C 74.28125 170.234375 74.164062 170.949219 74.011719 171.667969 C 73.984375 171.726562 73.921875 171.785156 73.835938 171.785156 Z M 8.390625 169.699219 C 8.300781 169.699219 8.210938 169.636719 8.210938 169.546875 C 8.121094 168.832031 8.03125 168.085938 8.003906 167.371094 C 8.003906 167.28125 8.0625 167.191406 8.183594 167.191406 C 8.269531 167.191406 8.359375 167.25 8.359375 167.371094 C 8.421875 168.085938 8.480469 168.800781 8.570312 169.519531 C 8.570312 169.578125 8.511719 169.667969 8.390625 169.699219 C 8.421875 169.699219 8.390625 169.699219 8.390625 169.699219 Z M 74.402344 167.488281 C 74.28125 167.488281 74.222656 167.398438 74.222656 167.308594 C 74.28125 166.59375 74.28125 165.878906 74.28125 165.160156 L 74.28125 165.070312 C 74.28125 164.984375 74.371094 164.894531 74.460938 164.894531 C 74.550781 164.894531 74.640625 164.984375 74.640625 165.070312 L 74.640625 165.160156 C 74.640625 165.878906 74.609375 166.625 74.582031 167.339844 C 74.582031 167.398438 74.492188 167.488281 74.402344 167.488281 Z M 8.09375 165.371094 C 8.003906 165.371094 7.914062 165.28125 7.914062 165.191406 L 7.914062 165.160156 C 7.914062 164.445312 7.941406 163.730469 7.972656 163.011719 C 7.972656 162.921875 8.0625 162.832031 8.152344 162.832031 C 8.242188 162.832031 8.332031 162.921875 8.332031 163.011719 C 8.300781 163.699219 8.269531 164.414062 8.269531 165.132812 L 8.269531 165.160156 C 8.269531 165.28125 8.210938 165.371094 8.09375 165.371094 Z M 74.402344 163.074219 C 74.3125 163.074219 74.222656 163.011719 74.222656 162.894531 C 74.164062 162.175781 74.101562 161.460938 74.011719 160.746094 C 74.011719 160.65625 74.074219 160.566406 74.164062 160.535156 C 74.25 160.535156 74.339844 160.597656 74.371094 160.683594 C 74.460938 161.402344 74.550781 162.148438 74.582031 162.863281 C 74.582031 162.953125 74.492188 163.042969 74.402344 163.074219 Z M 8.390625 161.042969 C 8.359375 161.042969 8.359375 161.042969 8.390625 161.042969 C 8.269531 161.042969 8.210938 160.953125 8.210938 160.835938 C 8.300781 160.117188 8.421875 159.402344 8.570312 158.6875 C 8.597656 158.597656 8.6875 158.535156 8.777344 158.535156 C 8.867188 158.566406 8.929688 158.65625 8.929688 158.746094 C 8.777344 159.460938 8.660156 160.179688 8.570312 160.863281 C 8.539062 160.953125 8.480469 161.042969 8.390625 161.042969 Z M 73.804688 158.746094 C 73.714844 158.746094 73.65625 158.6875 73.625 158.597656 C 73.476562 157.878906 73.328125 157.195312 73.117188 156.507812 C 73.089844 156.417969 73.148438 156.296875 73.238281 156.296875 C 73.328125 156.269531 73.445312 156.328125 73.445312 156.417969 C 73.625 157.105469 73.804688 157.820312 73.953125 158.535156 C 73.984375 158.625 73.921875 158.714844 73.804688 158.746094 C 73.835938 158.746094 73.835938 158.746094 73.804688 158.746094 Z M 9.226562 156.777344 C 9.195312 156.777344 9.195312 156.777344 9.167969 156.777344 C 9.078125 156.746094 9.015625 156.65625 9.046875 156.539062 C 9.226562 155.851562 9.433594 155.132812 9.675781 154.449219 C 9.703125 154.359375 9.792969 154.300781 9.914062 154.359375 C 10.003906 154.386719 10.0625 154.476562 10.03125 154.597656 C 9.792969 155.285156 9.585938 155.96875 9.40625 156.65625 C 9.375 156.714844 9.285156 156.777344 9.226562 156.777344 Z M 72.699219 154.566406 C 72.609375 154.566406 72.550781 154.507812 72.519531 154.449219 C 72.28125 153.761719 72.042969 153.105469 71.746094 152.417969 C 71.714844 152.328125 71.746094 152.210938 71.835938 152.179688 C 71.925781 152.152344 72.042969 152.179688 72.074219 152.269531 C 72.34375 152.925781 72.609375 153.613281 72.847656 154.300781 C 72.878906 154.386719 72.820312 154.507812 72.730469 154.539062 C 72.730469 154.566406 72.699219 154.566406 72.699219 154.566406 Z M 10.597656 152.65625 C 10.570312 152.65625 10.539062 152.65625 10.539062 152.65625 C 10.449219 152.628906 10.390625 152.507812 10.449219 152.417969 C 10.71875 151.761719 11.015625 151.078125 11.34375 150.417969 C 11.375 150.332031 11.496094 150.300781 11.582031 150.332031 C 11.671875 150.359375 11.703125 150.480469 11.671875 150.570312 C 11.34375 151.226562 11.046875 151.882812 10.777344 152.539062 C 10.75 152.628906 10.6875 152.65625 10.597656 152.65625 Z M 71.027344 150.570312 C 70.96875 150.570312 70.910156 150.539062 70.878906 150.480469 C 70.550781 149.851562 70.222656 149.195312 69.863281 148.570312 C 69.804688 148.480469 69.835938 148.359375 69.925781 148.332031 C 70.015625 148.269531 70.132812 148.300781 70.164062 148.390625 C 70.523438 149.015625 70.878906 149.671875 71.207031 150.300781 C 71.238281 150.390625 71.207031 150.507812 71.117188 150.539062 C 71.058594 150.570312 71.058594 150.570312 71.027344 150.570312 Z M 12.507812 148.75 C 12.480469 148.75 12.449219 148.75 12.417969 148.71875 C 12.328125 148.660156 12.300781 148.570312 12.359375 148.480469 C 12.71875 147.851562 13.105469 147.226562 13.523438 146.628906 C 13.582031 146.539062 13.703125 146.511719 13.761719 146.570312 C 13.851562 146.628906 13.882812 146.75 13.820312 146.808594 C 13.433594 147.40625 13.046875 148.03125 12.6875 148.660156 C 12.65625 148.71875 12.597656 148.75 12.507812 148.75 Z M 68.851562 146.808594 C 68.789062 146.808594 68.730469 146.777344 68.703125 146.71875 C 68.3125 146.121094 67.867188 145.527344 67.449219 144.957031 C 67.386719 144.867188 67.386719 144.78125 67.476562 144.71875 C 67.566406 144.660156 67.65625 144.660156 67.714844 144.75 C 68.164062 145.316406 68.582031 145.914062 69 146.511719 C 69.058594 146.601562 69.03125 146.71875 68.941406 146.75 C 68.910156 146.808594 68.878906 146.808594 68.851562 146.808594 Z M 14.925781 145.136719 C 14.894531 145.136719 14.835938 145.136719 14.808594 145.109375 C 14.71875 145.046875 14.71875 144.929688 14.777344 144.867188 C 15.222656 144.300781 15.671875 143.734375 16.148438 143.167969 C 16.210938 143.078125 16.328125 143.078125 16.417969 143.136719 C 16.507812 143.199219 16.507812 143.316406 16.449219 143.40625 C 15.96875 143.945312 15.523438 144.511719 15.074219 145.078125 C 15.046875 145.136719 14.984375 145.136719 14.925781 145.136719 Z M 66.195312 143.378906 C 66.136719 143.378906 66.105469 143.347656 66.046875 143.316406 C 65.566406 142.78125 65.058594 142.242188 64.554688 141.734375 C 64.492188 141.675781 64.492188 141.554688 64.554688 141.46875 C 64.613281 141.40625 64.730469 141.40625 64.820312 141.46875 C 65.328125 141.972656 65.835938 142.511719 66.3125 143.046875 C 66.375 143.109375 66.375 143.226562 66.285156 143.316406 C 66.285156 143.378906 66.222656 143.378906 66.195312 143.378906 Z M 17.789062 141.886719 C 17.730469 141.886719 17.703125 141.855469 17.671875 141.824219 C 17.613281 141.765625 17.613281 141.644531 17.671875 141.554688 C 18.179688 141.050781 18.714844 140.542969 19.253906 140.066406 C 19.34375 140.003906 19.433594 140.003906 19.523438 140.09375 C 19.582031 140.152344 19.582031 140.273438 19.492188 140.363281 C 18.953125 140.839844 18.417969 141.347656 17.910156 141.855469 C 17.878906 141.855469 17.851562 141.886719 17.789062 141.886719 Z M 63.121094 140.332031 C 63.089844 140.332031 63.03125 140.332031 63 140.304688 C 62.464844 139.824219 61.898438 139.378906 61.332031 138.929688 C 61.242188 138.871094 61.242188 138.75 61.300781 138.691406 C 61.359375 138.601562 61.480469 138.601562 61.539062 138.660156 C 62.105469 139.109375 62.671875 139.558594 63.238281 140.035156 C 63.328125 140.09375 63.328125 140.214844 63.269531 140.304688 C 63.210938 140.304688 63.152344 140.332031 63.121094 140.332031 Z M 21.042969 139.019531 C 20.984375 139.019531 20.925781 138.988281 20.894531 138.960938 C 20.835938 138.871094 20.835938 138.78125 20.925781 138.722656 C 21.492188 138.273438 22.089844 137.855469 22.683594 137.4375 C 22.773438 137.378906 22.894531 137.410156 22.921875 137.5 C 22.984375 137.585938 22.953125 137.707031 22.863281 137.738281 C 22.265625 138.125 21.671875 138.574219 21.101562 138.988281 C 21.132812 139.019531 21.074219 139.019531 21.042969 139.019531 Z M 59.660156 137.675781 C 59.628906 137.675781 59.597656 137.675781 59.570312 137.648438 C 58.972656 137.257812 58.347656 136.871094 57.71875 136.511719 C 57.628906 136.453125 57.601562 136.363281 57.660156 136.273438 C 57.71875 136.183594 57.808594 136.15625 57.898438 136.214844 C 58.523438 136.574219 59.152344 136.960938 59.75 137.378906 C 59.839844 137.4375 59.867188 137.558594 59.808594 137.617188 C 59.777344 137.648438 59.71875 137.675781 59.660156 137.675781 Z M 24.65625 136.601562 C 24.59375 136.601562 24.535156 136.574219 24.503906 136.511719 C 24.445312 136.421875 24.476562 136.304688 24.566406 136.273438 C 25.191406 135.917969 25.847656 135.558594 26.476562 135.230469 C 26.5625 135.199219 26.683594 135.230469 26.714844 135.320312 C 26.742188 135.410156 26.714844 135.527344 26.625 135.558594 C 25.96875 135.886719 25.339844 136.214844 24.714844 136.574219 C 24.714844 136.601562 24.683594 136.601562 24.65625 136.601562 Z M 55.898438 135.527344 C 55.871094 135.527344 55.839844 135.527344 55.808594 135.5 C 55.152344 135.171875 54.496094 134.871094 53.839844 134.601562 C 53.75 134.574219 53.691406 134.453125 53.75 134.363281 C 53.78125 134.273438 53.898438 134.214844 53.988281 134.273438 C 54.644531 134.542969 55.332031 134.84375 55.988281 135.171875 C 56.078125 135.199219 56.109375 135.320312 56.078125 135.410156 C 56.046875 135.46875 55.957031 135.527344 55.898438 135.527344 Z M 28.535156 134.664062 C 28.472656 134.664062 28.386719 134.632812 28.355469 134.542969 C 28.324219 134.453125 28.355469 134.335938 28.445312 134.304688 C 29.101562 134.035156 29.789062 133.769531 30.472656 133.527344 C 30.5625 133.5 30.683594 133.558594 30.710938 133.648438 C 30.742188 133.738281 30.683594 133.855469 30.59375 133.886719 C 29.90625 134.125 29.25 134.363281 28.5625 134.664062 C 28.59375 134.664062 28.5625 134.664062 28.535156 134.664062 Z M 51.898438 133.855469 C 51.871094 133.855469 51.871094 133.855469 51.839844 133.855469 C 51.152344 133.617188 50.46875 133.410156 49.78125 133.230469 C 49.691406 133.199219 49.632812 133.113281 49.664062 133.023438 C 49.691406 132.933594 49.78125 132.871094 49.871094 132.902344 C 50.558594 133.082031 51.273438 133.289062 51.960938 133.527344 C 52.050781 133.558594 52.109375 133.648438 52.078125 133.769531 C 52.019531 133.828125 51.960938 133.855469 51.898438 133.855469 Z M 32.621094 133.261719 C 32.53125 133.261719 32.472656 133.199219 32.441406 133.140625 C 32.414062 133.050781 32.472656 132.933594 32.5625 132.933594 C 33.25 132.753906 33.964844 132.574219 34.679688 132.425781 C 34.769531 132.394531 34.859375 132.453125 34.890625 132.574219 C 34.921875 132.664062 34.859375 132.753906 34.742188 132.78125 C 34.023438 132.933594 33.339844 133.082031 32.652344 133.289062 C 32.683594 133.261719 32.652344 133.261719 32.621094 133.261719 Z M 47.691406 132.753906 C 47.691406 132.753906 47.664062 132.753906 47.664062 132.753906 C 46.945312 132.605469 46.230469 132.515625 45.542969 132.394531 C 45.453125 132.394531 45.363281 132.304688 45.394531 132.1875 C 45.394531 132.097656 45.484375 132.007812 45.605469 132.035156 C 46.320312 132.125 47.035156 132.246094 47.753906 132.394531 C 47.839844 132.425781 47.902344 132.515625 47.902344 132.605469 C 47.839844 132.695312 47.78125 132.753906 47.691406 132.753906 Z M 36.890625 132.425781 C 36.800781 132.425781 36.710938 132.367188 36.710938 132.277344 C 36.710938 132.1875 36.769531 132.097656 36.859375 132.066406 C 37.574219 131.976562 38.320312 131.886719 39.039062 131.859375 C 39.128906 131.859375 39.21875 131.917969 39.21875 132.035156 C 39.21875 132.125 39.15625 132.214844 39.039062 132.214844 C 38.351562 132.246094 37.636719 132.335938 36.890625 132.425781 C 36.917969 132.425781 36.890625 132.425781 36.890625 132.425781 Z M 43.394531 132.1875 C 42.679688 132.15625 41.992188 132.125 41.277344 132.125 L 41.21875 132.125 C 41.128906 132.125 41.039062 132.035156 41.039062 131.949219 C 41.039062 131.859375 41.128906 131.769531 41.21875 131.769531 L 41.277344 131.769531 C 41.992188 131.769531 42.707031 131.796875 43.394531 131.828125 C 43.484375 131.828125 43.574219 131.917969 43.574219 132.007812 C 43.574219 132.125 43.484375 132.1875 43.394531 132.1875 Z M 43.394531 132.1875 " fill-opacity="1" fill-rule="nonzero"/></g><g clip-path="url(#c06a4ffbf1)"><path fill="#43798b" d="M 74.503906 228.957031 C 74.582031 229.597656 74.699219 230.242188 74.855469 230.871094 L 74.324219 231.003906 C 74.164062 230.351562 74.039062 229.683594 73.960938 229.027344 Z M 74.917969 232.929688 C 75.15625 233.554688 75.4375 234.167969 75.75 234.765625 L 76.238281 234.507812 C 75.941406 233.933594 75.664062 233.335938 75.4375 232.730469 Z M 107.074219 224.949219 C 106.996094 224.285156 106.867188 223.617188 106.710938 222.972656 L 106.179688 223.105469 C 106.335938 223.734375 106.453125 224.378906 106.53125 225.019531 Z M 76.796875 236.484375 C 77.171875 237.035156 77.597656 237.570312 78.035156 238.070312 L 78.445312 237.710938 C 78.011719 237.222656 77.613281 236.714844 77.242188 236.179688 Z M 86.53125 243.199219 C 87.183594 243.355469 87.851562 243.480469 88.511719 243.558594 L 88.574219 243.011719 C 87.929688 242.933594 87.285156 242.8125 86.65625 242.664062 Z M 79.464844 239.492188 C 79.96875 239.941406 80.503906 240.355469 81.050781 240.734375 L 81.367188 240.277344 C 80.832031 239.910156 80.320312 239.507812 79.835938 239.078125 Z M 79.441406 214.523438 C 78.9375 214.960938 78.460938 215.449219 78.019531 215.945312 L 78.429688 216.304688 C 78.859375 215.828125 79.324219 215.363281 79.804688 214.929688 Z M 74.386719 227 C 74.386719 226.355469 74.425781 225.703125 74.503906 225.070312 L 73.953125 225.003906 C 73.875 225.65625 73.835938 226.332031 73.835938 227 L 73.835938 227.015625 L 74.386719 227.015625 Z M 86.632812 211.335938 L 86.5 210.800781 C 85.847656 210.957031 85.207031 211.164062 84.578125 211.40625 L 84.773438 211.917969 C 85.378906 211.6875 86.007812 211.492188 86.632812 211.335938 Z M 83 212.71875 L 82.738281 212.230469 C 82.152344 212.542969 81.570312 212.898438 81.019531 213.273438 L 81.335938 213.730469 C 81.867188 213.359375 82.425781 213.023438 83 212.71875 Z M 77.226562 217.84375 L 76.773438 217.53125 C 76.394531 218.082031 76.042969 218.660156 75.726562 219.257812 L 76.214844 219.515625 C 76.519531 218.945312 76.859375 218.378906 77.226562 217.84375 Z M 75.421875 221.292969 L 74.910156 221.09375 C 74.675781 221.722656 74.472656 222.367188 74.316406 223.019531 L 74.847656 223.152344 C 74.996094 222.523438 75.195312 221.894531 75.421875 221.292969 Z M 82.769531 241.777344 C 83.367188 242.089844 83.980469 242.367188 84.609375 242.601562 L 84.804688 242.089844 C 84.199219 241.863281 83.605469 241.597656 83.03125 241.289062 Z M 105.273438 219.21875 L 104.789062 219.476562 C 105.09375 220.050781 105.363281 220.648438 105.589844 221.253906 L 106.097656 221.054688 C 105.871094 220.429688 105.589844 219.808594 105.273438 219.21875 Z M 103.800781 236.164062 L 104.253906 236.476562 C 104.640625 235.929688 104.984375 235.347656 105.296875 234.757812 L 104.8125 234.5 C 104.503906 235.0625 104.167969 235.628906 103.800781 236.164062 Z M 88.488281 210.441406 L 88.550781 210.980469 C 89.195312 210.902344 89.847656 210.863281 90.496094 210.863281 L 90.496094 210.316406 C 89.824219 210.316406 89.148438 210.355469 88.488281 210.441406 Z M 105.605469 232.714844 L 106.117188 232.914062 C 106.351562 232.285156 106.554688 231.640625 106.710938 230.988281 L 106.179688 230.855469 C 106.027344 231.484375 105.832031 232.113281 105.605469 232.714844 Z M 101.214844 239.070312 L 101.578125 239.476562 C 102.078125 239.03125 102.558594 238.550781 103 238.054688 L 102.589844 237.695312 C 102.164062 238.179688 101.703125 238.644531 101.214844 239.070312 Z M 106.648438 226.960938 L 106.648438 226.992188 C 106.648438 227.644531 106.609375 228.296875 106.53125 228.941406 L 107.074219 229.003906 C 107.152344 228.34375 107.191406 227.667969 107.191406 226.992188 L 107.191406 226.960938 Z M 102.988281 215.914062 L 102.574219 216.28125 C 103.007812 216.769531 103.40625 217.277344 103.777344 217.8125 L 104.230469 217.5 C 103.855469 216.949219 103.429688 216.414062 102.988281 215.914062 Z M 94.382812 242.664062 L 94.519531 243.199219 C 95.167969 243.042969 95.8125 242.835938 96.441406 242.601562 L 96.246094 242.089844 C 95.640625 242.3125 95.011719 242.507812 94.382812 242.664062 Z M 92.5 210.433594 L 92.4375 210.980469 C 93.082031 211.058594 93.726562 211.179688 94.351562 211.328125 L 94.488281 210.785156 C 93.835938 210.628906 93.167969 210.511719 92.5 210.433594 Z M 90.527344 243.128906 L 90.527344 243.679688 C 91.195312 243.679688 91.878906 243.636719 92.539062 243.558594 L 92.476562 243.019531 C 91.832031 243.089844 91.171875 243.128906 90.527344 243.128906 Z M 96.410156 211.382812 L 96.214844 211.894531 C 96.820312 212.121094 97.414062 212.386719 97.988281 212.695312 L 98.238281 212.207031 C 97.660156 211.902344 97.039062 211.617188 96.410156 211.382812 Z M 99.976562 213.25 L 99.660156 213.707031 C 100.195312 214.074219 100.714844 214.476562 101.191406 214.90625 L 101.554688 214.5 C 101.058594 214.050781 100.523438 213.628906 99.976562 213.25 Z M 98.019531 241.28125 L 98.277344 241.769531 C 98.867188 241.457031 99.449219 241.109375 100 240.726562 L 99.683594 240.269531 C 99.152344 240.640625 98.59375 240.984375 98.019531 241.28125 Z M 98.019531 241.28125 " fill-opacity="1" fill-rule="nonzero"/></g><g fill="#f6931d" fill-opacity="1"><g transform="translate(44.056334, 205.164197)"><g><path d="M 34.265625 0 L 25.515625 0 L 25.515625 -20.625 C 25.515625 -22.550781 25.078125 -24.046875 24.203125 -25.109375 C 23.335938 -26.171875 21.890625 -26.703125 19.859375 -26.703125 C 17.765625 -26.703125 16.097656 -26.015625 14.859375 -24.640625 C 13.617188 -23.273438 13 -21.40625 13 -19.03125 L 13 0 L 4.265625 0 L 4.265625 -33.203125 L 12.640625 -33.203125 L 12.640625 -28.328125 L 12.765625 -28.328125 C 14.847656 -32.140625 18.144531 -34.046875 22.65625 -34.046875 C 26.050781 -34.046875 28.832031 -33.078125 31 -31.140625 C 33.175781 -29.203125 34.265625 -26.476562 34.265625 -22.96875 Z M 34.265625 0 "/></g></g></g><g fill="#f6931d" fill-opacity="1"><g transform="translate(82.124499, 205.164197)"><g><path d="M 12.609375 -15.84375 C 12.609375 -12.914062 13.273438 -10.59375 14.609375 -8.875 C 15.953125 -7.15625 17.84375 -6.296875 20.28125 -6.296875 C 22.519531 -6.296875 24.273438 -7.253906 25.546875 -9.171875 C 26.828125 -11.097656 27.46875 -13.492188 27.46875 -16.359375 C 27.46875 -19.648438 26.8125 -22.160156 25.5 -23.890625 C 24.195312 -25.628906 22.378906 -26.5 20.046875 -26.5 C 17.546875 -26.5 15.679688 -25.585938 14.453125 -23.765625 C 13.222656 -21.953125 12.609375 -19.3125 12.609375 -15.84375 Z M 12.609375 -28.390625 L 12.765625 -28.390625 C 14.890625 -32.160156 18.1875 -34.046875 22.65625 -34.046875 C 26.632812 -34.046875 29.925781 -32.523438 32.53125 -29.484375 C 35.144531 -26.453125 36.453125 -22.28125 36.453125 -16.96875 C 36.453125 -11.75 35.238281 -7.46875 32.8125 -4.125 C 30.382812 -0.78125 26.941406 0.890625 22.484375 0.890625 C 18.109375 0.890625 14.988281 -0.816406 13.125 -4.234375 L 13 -4.234375 L 13 12.90625 L 4.265625 12.90625 L 4.265625 -33.203125 L 12.609375 -33.203125 Z M 12.609375 -28.390625 "/></g></g></g><g fill="#f6931d" fill-opacity="1"><g transform="translate(120.862665, 205.164197)"><g><path d="M 13 -37.125 L 4.265625 -37.125 L 4.265625 -45.234375 L 13 -45.234375 Z M 13 -33.203125 L 13 0 L 4.265625 0 L 4.265625 -33.203125 Z M 13 -33.203125 "/></g></g></g><g clip-path="url(#d7f613448a)"><g clip-path="url(#f39bd1cf4e)"><path fill="#135f73" d="M 58.011719 131.769531 L 73.921875 131.769531 L 73.921875 147.679688 L 58.011719 147.679688 Z M 58.011719 131.769531 " fill-opacity="1" fill-rule="nonzero"/></g></g><g fill="#135f73" fill-opacity="1"><g transform="translate(145.712676, 181.541179)"><g><path d="M 11.3125 0 L 9.28125 0 L 9.28125 -7.390625 C 9.28125 -8.535156 9.082031 -9.347656 8.6875 -9.828125 C 8.289062 -10.304688 7.632812 -10.546875 6.71875 -10.546875 C 5.8125 -10.546875 5.050781 -10.203125 4.4375 -9.515625 C 3.832031 -8.828125 3.53125 -7.835938 3.53125 -6.546875 L 3.53125 0 L 1.515625 0 L 1.515625 -12.015625 L 3.421875 -12.015625 L 3.421875 -10.328125 L 3.46875 -10.328125 C 4.414062 -11.691406 5.628906 -12.375 7.109375 -12.375 C 8.460938 -12.375 9.5 -12.007812 10.21875 -11.28125 C 10.945312 -10.5625 11.3125 -9.53125 11.3125 -8.1875 Z M 11.3125 0 "/></g></g></g><g fill="#135f73" fill-opacity="1"><g transform="translate(158.392328, 181.541179)"><g><path d="M 1.40625 -12.015625 L 3.421875 -12.015625 L 3.421875 -4.046875 C 3.421875 -3.160156 3.617188 -2.5 4.015625 -2.0625 C 4.421875 -1.625 5 -1.40625 5.75 -1.40625 C 6.789062 -1.40625 7.601562 -1.769531 8.1875 -2.5 C 8.769531 -3.238281 9.0625 -4.203125 9.0625 -5.390625 L 9.0625 -12.015625 L 11.078125 -12.015625 L 11.078125 0 L 9.171875 0 L 9.171875 -1.75 L 9.125 -1.796875 C 8.363281 -0.367188 7.09375 0.34375 5.3125 0.34375 C 4.15625 0.34375 3.210938 0.03125 2.484375 -0.59375 C 1.765625 -1.21875 1.40625 -2.144531 1.40625 -3.375 Z M 6.734375 -13.625 L 5.21875 -13.625 L 6.84375 -16.875 L 9.265625 -16.875 Z M 6.734375 -13.625 "/></g></g></g><g fill="#135f73" fill-opacity="1"><g transform="translate(170.982213, 181.541179)"><g><path d="M 9.109375 -7.984375 C 8.804688 -9.691406 7.851562 -10.546875 6.25 -10.546875 C 5.257812 -10.546875 4.457031 -10.144531 3.84375 -9.34375 C 3.238281 -8.550781 2.9375 -7.445312 2.9375 -6.03125 C 2.9375 -4.476562 3.21875 -3.316406 3.78125 -2.546875 C 4.34375 -1.785156 5.160156 -1.40625 6.234375 -1.40625 C 6.953125 -1.40625 7.570312 -1.664062 8.09375 -2.1875 C 8.613281 -2.71875 8.953125 -3.40625 9.109375 -4.25 L 11.046875 -4.25 C 10.847656 -2.757812 10.320312 -1.617188 9.46875 -0.828125 C 8.625 -0.046875 7.53125 0.34375 6.1875 0.34375 C 4.601562 0.34375 3.304688 -0.191406 2.296875 -1.265625 C 1.285156 -2.347656 0.78125 -3.816406 0.78125 -5.671875 C 0.78125 -7.710938 1.285156 -9.335938 2.296875 -10.546875 C 3.304688 -11.765625 4.722656 -12.375 6.546875 -12.375 C 7.878906 -12.375 8.941406 -11.972656 9.734375 -11.171875 C 10.523438 -10.378906 10.960938 -9.316406 11.046875 -7.984375 Z M 9.109375 -7.984375 "/></g></g></g><g fill="#135f73" fill-opacity="1"><g transform="translate(182.76419, 181.541179)"><g><path d="M 3.53125 0 L 1.515625 0 L 1.515625 -16.5 L 3.53125 -16.5 Z M 3.53125 0 "/></g></g></g><g fill="#135f73" fill-opacity="1"><g transform="translate(187.824836, 181.541179)"><g><path d="M 9.765625 -6.96875 C 9.660156 -8.269531 9.316406 -9.191406 8.734375 -9.734375 C 8.148438 -10.273438 7.375 -10.546875 6.40625 -10.546875 C 5.425781 -10.546875 4.632812 -10.203125 4.03125 -9.515625 C 3.425781 -8.828125 3.109375 -7.976562 3.078125 -6.96875 Z M 11.6875 -3.765625 C 11.46875 -2.523438 10.859375 -1.5 9.859375 -0.6875 C 8.984375 0 7.832031 0.351562 6.40625 0.375 C 4.726562 0.351562 3.394531 -0.195312 2.40625 -1.28125 C 1.414062 -2.375 0.921875 -3.835938 0.921875 -5.671875 C 0.921875 -7.785156 1.425781 -9.429688 2.4375 -10.609375 C 3.457031 -11.785156 4.875 -12.375 6.6875 -12.375 C 8.3125 -12.375 9.578125 -11.765625 10.484375 -10.546875 C 11.398438 -9.335938 11.859375 -7.609375 11.859375 -5.359375 L 3.078125 -5.359375 C 3.078125 -4.097656 3.367188 -3.125 3.953125 -2.4375 C 4.535156 -1.75 5.410156 -1.40625 6.578125 -1.40625 C 7.398438 -1.40625 8.101562 -1.648438 8.6875 -2.140625 C 9.28125 -2.640625 9.609375 -3.179688 9.671875 -3.765625 Z M 11.6875 -3.765625 "/></g></g></g><g fill="#135f73" fill-opacity="1"><g transform="translate(200.560599, 181.541179)"><g><path d="M 2.921875 -6.03125 C 2.921875 -4.6875 3.222656 -3.582031 3.828125 -2.71875 C 4.429688 -1.851562 5.289062 -1.421875 6.40625 -1.421875 C 7.5625 -1.421875 8.4375 -1.875 9.03125 -2.78125 C 9.632812 -3.6875 9.9375 -4.769531 9.9375 -6.03125 C 9.9375 -7.300781 9.632812 -8.378906 9.03125 -9.265625 C 8.4375 -10.148438 7.5625 -10.59375 6.40625 -10.59375 C 5.332031 -10.59375 4.484375 -10.175781 3.859375 -9.34375 C 3.234375 -8.507812 2.921875 -7.40625 2.921875 -6.03125 Z M 0.859375 -6.03125 C 0.859375 -7.8125 1.351562 -9.3125 2.34375 -10.53125 C 3.34375 -11.757812 4.695312 -12.375 6.40625 -12.375 C 8.15625 -12.375 9.523438 -11.753906 10.515625 -10.515625 C 11.503906 -9.273438 12 -7.78125 12 -6.03125 C 12 -4.257812 11.507812 -2.753906 10.53125 -1.515625 C 9.550781 -0.273438 8.175781 0.34375 6.40625 0.34375 C 4.707031 0.34375 3.359375 -0.253906 2.359375 -1.453125 C 1.359375 -2.660156 0.859375 -4.1875 0.859375 -6.03125 Z M 0.859375 -6.03125 "/></g></g></g><g fill="#135f73" fill-opacity="1"><g transform="translate(213.40857, 181.541179)"><g/></g></g><g fill="#135f73" fill-opacity="1"><g transform="translate(219.019036, 181.541179)"><g><path d="M 3 -6.046875 C 3 -4.554688 3.296875 -3.410156 3.890625 -2.609375 C 4.484375 -1.804688 5.269531 -1.40625 6.25 -1.40625 C 7.1875 -1.40625 7.96875 -1.75 8.59375 -2.4375 C 9.226562 -3.125 9.546875 -4.125 9.546875 -5.4375 C 9.546875 -7.132812 9.273438 -8.410156 8.734375 -9.265625 C 8.203125 -10.117188 7.390625 -10.546875 6.296875 -10.546875 C 5.253906 -10.546875 4.441406 -10.203125 3.859375 -9.515625 C 3.285156 -8.835938 3 -7.679688 3 -6.046875 Z M 11.578125 0 L 9.671875 0 L 9.671875 -1.65625 L 9.625 -1.65625 C 8.863281 -0.320312 7.707031 0.34375 6.15625 0.34375 C 4.488281 0.34375 3.195312 -0.289062 2.28125 -1.5625 C 1.375 -2.832031 0.921875 -4.429688 0.921875 -6.359375 C 0.921875 -8.140625 1.375 -9.585938 2.28125 -10.703125 C 3.1875 -11.816406 4.398438 -12.375 5.921875 -12.375 C 7.429688 -12.375 8.628906 -11.691406 9.515625 -10.328125 L 9.5625 -10.453125 L 9.5625 -16.5 L 11.578125 -16.5 Z M 11.578125 0 "/></g></g></g><g fill="#135f73" fill-opacity="1"><g transform="translate(232.113869, 181.541179)"><g><path d="M 9.765625 -6.96875 C 9.660156 -8.269531 9.316406 -9.191406 8.734375 -9.734375 C 8.148438 -10.273438 7.375 -10.546875 6.40625 -10.546875 C 5.425781 -10.546875 4.632812 -10.203125 4.03125 -9.515625 C 3.425781 -8.828125 3.109375 -7.976562 3.078125 -6.96875 Z M 11.6875 -3.765625 C 11.46875 -2.523438 10.859375 -1.5 9.859375 -0.6875 C 8.984375 0 7.832031 0.351562 6.40625 0.375 C 4.726562 0.351562 3.394531 -0.195312 2.40625 -1.28125 C 1.414062 -2.375 0.921875 -3.835938 0.921875 -5.671875 C 0.921875 -7.785156 1.425781 -9.429688 2.4375 -10.609375 C 3.457031 -11.785156 4.875 -12.375 6.6875 -12.375 C 8.3125 -12.375 9.578125 -11.765625 10.484375 -10.546875 C 11.398438 -9.335938 11.859375 -7.609375 11.859375 -5.359375 L 3.078125 -5.359375 C 3.078125 -4.097656 3.367188 -3.125 3.953125 -2.4375 C 4.535156 -1.75 5.410156 -1.40625 6.578125 -1.40625 C 7.398438 -1.40625 8.101562 -1.648438 8.6875 -2.140625 C 9.28125 -2.640625 9.609375 -3.179688 9.671875 -3.765625 Z M 11.6875 -3.765625 "/></g></g></g><g fill="#135f73" fill-opacity="1"><g transform="translate(244.849631, 181.541179)"><g/></g></g><g fill="#135f73" fill-opacity="1"><g transform="translate(250.460097, 181.541179)"><g><path d="M 3.453125 -5.4375 C 3.453125 -4.15625 3.765625 -3.160156 4.390625 -2.453125 C 5.015625 -1.753906 5.796875 -1.40625 6.734375 -1.40625 C 7.753906 -1.40625 8.550781 -1.820312 9.125 -2.65625 C 9.695312 -3.488281 9.984375 -4.617188 9.984375 -6.046875 C 9.984375 -7.609375 9.707031 -8.75 9.15625 -9.46875 C 8.613281 -10.1875 7.789062 -10.546875 6.6875 -10.546875 C 5.613281 -10.546875 4.804688 -10.125 4.265625 -9.28125 C 3.722656 -8.445312 3.453125 -7.164062 3.453125 -5.4375 Z M 1.515625 -12.015625 L 3.421875 -12.015625 L 3.421875 -10.328125 L 3.46875 -10.328125 C 4.332031 -11.691406 5.53125 -12.375 7.0625 -12.375 C 8.601562 -12.375 9.820312 -11.804688 10.71875 -10.671875 C 11.613281 -9.546875 12.0625 -8.109375 12.0625 -6.359375 C 12.0625 -4.398438 11.601562 -2.789062 10.6875 -1.53125 C 9.78125 -0.28125 8.476562 0.34375 6.78125 0.34375 C 5.382812 0.34375 4.316406 -0.191406 3.578125 -1.265625 L 3.53125 -1.265625 L 3.53125 4.765625 L 1.515625 4.765625 Z M 1.515625 -12.015625 "/></g></g></g><g fill="#135f73" fill-opacity="1"><g transform="translate(263.44272, 181.541179)"><g><path d="M 3.53125 0 L 1.515625 0 L 1.515625 -12.015625 L 3.421875 -12.015625 L 3.421875 -10.015625 L 3.46875 -10.015625 C 4.34375 -11.585938 5.46875 -12.375 6.84375 -12.375 C 7.0625 -12.375 7.238281 -12.347656 7.375 -12.296875 L 7.375 -10.203125 L 6.625 -10.203125 C 5.71875 -10.203125 4.972656 -9.894531 4.390625 -9.28125 C 3.816406 -8.664062 3.53125 -7.898438 3.53125 -6.984375 Z M 3.53125 0 "/></g></g></g><g fill="#135f73" fill-opacity="1"><g transform="translate(270.927087, 181.541179)"><g><path d="M 8.828125 -6.140625 C 8.671875 -5.984375 8.375 -5.851562 7.9375 -5.75 C 7.5 -5.65625 6.679688 -5.53125 5.484375 -5.375 C 4.597656 -5.269531 3.945312 -5.050781 3.53125 -4.71875 C 3.125 -4.394531 2.921875 -3.960938 2.921875 -3.421875 C 2.921875 -2.765625 3.09375 -2.25 3.4375 -1.875 C 3.789062 -1.507812 4.351562 -1.328125 5.125 -1.328125 C 6.09375 -1.328125 6.953125 -1.601562 7.703125 -2.15625 C 8.453125 -2.707031 8.828125 -3.375 8.828125 -4.15625 Z M 1.421875 -8.359375 C 1.472656 -9.710938 1.914062 -10.71875 2.75 -11.375 C 3.582031 -12.039062 4.796875 -12.375 6.390625 -12.375 C 7.660156 -12.375 8.722656 -12.082031 9.578125 -11.5 C 10.441406 -10.925781 10.875 -10.097656 10.875 -9.015625 L 10.875 -2.09375 C 10.875 -1.613281 11.085938 -1.375 11.515625 -1.375 C 11.679688 -1.375 11.898438 -1.40625 12.171875 -1.46875 L 12.171875 0 C 11.804688 0.144531 11.425781 0.21875 11.03125 0.21875 C 10.34375 0.21875 9.828125 0.0703125 9.484375 -0.21875 C 9.148438 -0.507812 8.976562 -0.972656 8.96875 -1.609375 C 7.8125 -0.304688 6.363281 0.34375 4.625 0.34375 C 3.488281 0.34375 2.578125 0.0234375 1.890625 -0.609375 C 1.203125 -1.253906 0.859375 -2.09375 0.859375 -3.125 C 0.859375 -4.1875 1.15625 -5.039062 1.75 -5.6875 C 2.351562 -6.34375 3.222656 -6.738281 4.359375 -6.875 L 7.9375 -7.3125 C 8.582031 -7.40625 8.90625 -7.878906 8.90625 -8.734375 C 8.90625 -9.359375 8.671875 -9.835938 8.203125 -10.171875 C 7.734375 -10.515625 7.023438 -10.6875 6.078125 -10.6875 C 5.222656 -10.6875 4.570312 -10.5 4.125 -10.125 C 3.675781 -9.75 3.40625 -9.160156 3.3125 -8.359375 Z M 6.875 -13.625 L 5.359375 -13.625 L 6.984375 -16.875 L 9.40625 -16.875 Z M 6.875 -13.625 "/></g></g></g><g fill="#135f73" fill-opacity="1"><g transform="translate(283.55064, 181.541179)"><g><path d="M 3.953125 -10.34375 L 3.953125 -2.53125 C 3.953125 -2.21875 4.035156 -1.976562 4.203125 -1.8125 C 4.367188 -1.65625 4.671875 -1.578125 5.109375 -1.578125 L 5.875 -1.578125 L 5.875 0 C 5.144531 0.101562 4.640625 0.15625 4.359375 0.15625 C 3.515625 0.15625 2.898438 -0.046875 2.515625 -0.453125 C 2.128906 -0.859375 1.9375 -1.507812 1.9375 -2.40625 L 1.9375 -10.34375 L 0.296875 -10.34375 L 0.296875 -12.015625 L 1.9375 -12.015625 L 1.9375 -15.375 L 3.953125 -15.375 L 3.953125 -12.015625 L 5.875 -12.015625 L 5.875 -10.34375 Z M 3.953125 -10.34375 "/></g></g></g><g fill="#135f73" fill-opacity="1"><g transform="translate(289.912914, 181.541179)"><g><path d="M 1.515625 -14.203125 L 1.515625 -16.5 L 3.53125 -16.5 L 3.53125 -14.203125 Z M 3.53125 0 L 1.515625 0 L 1.515625 -12.015625 L 3.53125 -12.015625 Z M 3.53125 0 "/></g></g></g><g fill="#135f73" fill-opacity="1"><g transform="translate(294.97356, 181.541179)"><g><path d="M 9.109375 -7.984375 C 8.804688 -9.691406 7.851562 -10.546875 6.25 -10.546875 C 5.257812 -10.546875 4.457031 -10.144531 3.84375 -9.34375 C 3.238281 -8.550781 2.9375 -7.445312 2.9375 -6.03125 C 2.9375 -4.476562 3.21875 -3.316406 3.78125 -2.546875 C 4.34375 -1.785156 5.160156 -1.40625 6.234375 -1.40625 C 6.953125 -1.40625 7.570312 -1.664062 8.09375 -2.1875 C 8.613281 -2.71875 8.953125 -3.40625 9.109375 -4.25 L 11.046875 -4.25 C 10.847656 -2.757812 10.320312 -1.617188 9.46875 -0.828125 C 8.625 -0.046875 7.53125 0.34375 6.1875 0.34375 C 4.601562 0.34375 3.304688 -0.191406 2.296875 -1.265625 C 1.285156 -2.347656 0.78125 -3.816406 0.78125 -5.671875 C 0.78125 -7.710938 1.285156 -9.335938 2.296875 -10.546875 C 3.304688 -11.765625 4.722656 -12.375 6.546875 -12.375 C 7.878906 -12.375 8.941406 -11.972656 9.734375 -11.171875 C 10.523438 -10.378906 10.960938 -9.316406 11.046875 -7.984375 Z M 9.109375 -7.984375 "/></g></g></g><g fill="#135f73" fill-opacity="1"><g transform="translate(306.755538, 181.541179)"><g><path d="M 8.828125 -6.140625 C 8.671875 -5.984375 8.375 -5.851562 7.9375 -5.75 C 7.5 -5.65625 6.679688 -5.53125 5.484375 -5.375 C 4.597656 -5.269531 3.945312 -5.050781 3.53125 -4.71875 C 3.125 -4.394531 2.921875 -3.960938 2.921875 -3.421875 C 2.921875 -2.765625 3.09375 -2.25 3.4375 -1.875 C 3.789062 -1.507812 4.351562 -1.328125 5.125 -1.328125 C 6.09375 -1.328125 6.953125 -1.601562 7.703125 -2.15625 C 8.453125 -2.707031 8.828125 -3.375 8.828125 -4.15625 Z M 1.421875 -8.359375 C 1.472656 -9.710938 1.914062 -10.71875 2.75 -11.375 C 3.582031 -12.039062 4.796875 -12.375 6.390625 -12.375 C 7.660156 -12.375 8.722656 -12.082031 9.578125 -11.5 C 10.441406 -10.925781 10.875 -10.097656 10.875 -9.015625 L 10.875 -2.09375 C 10.875 -1.613281 11.085938 -1.375 11.515625 -1.375 C 11.679688 -1.375 11.898438 -1.40625 12.171875 -1.46875 L 12.171875 0 C 11.804688 0.144531 11.425781 0.21875 11.03125 0.21875 C 10.34375 0.21875 9.828125 0.0703125 9.484375 -0.21875 C 9.148438 -0.507812 8.976562 -0.972656 8.96875 -1.609375 C 7.8125 -0.304688 6.363281 0.34375 4.625 0.34375 C 3.488281 0.34375 2.578125 0.0234375 1.890625 -0.609375 C 1.203125 -1.253906 0.859375 -2.09375 0.859375 -3.125 C 0.859375 -4.1875 1.15625 -5.039062 1.75 -5.6875 C 2.351562 -6.34375 3.222656 -6.738281 4.359375 -6.875 L 7.9375 -7.3125 C 8.582031 -7.40625 8.90625 -7.878906 8.90625 -8.734375 C 8.90625 -9.359375 8.671875 -9.835938 8.203125 -10.171875 C 7.734375 -10.515625 7.023438 -10.6875 6.078125 -10.6875 C 5.222656 -10.6875 4.570312 -10.5 4.125 -10.125 C 3.675781 -9.75 3.40625 -9.160156 3.3125 -8.359375 Z M 1.421875 -8.359375 "/></g></g></g><g fill="#135f73" fill-opacity="1"><g transform="translate(319.379091, 181.541179)"><g><path d="M 8.296875 -8.59375 C 8.265625 -9.3125 8.003906 -9.828125 7.515625 -10.140625 C 7.035156 -10.453125 6.34375 -10.609375 5.4375 -10.609375 C 4.78125 -10.609375 4.21875 -10.460938 3.75 -10.171875 C 3.28125 -9.878906 3.046875 -9.460938 3.046875 -8.921875 C 3.046875 -8.484375 3.1875 -8.160156 3.46875 -7.953125 C 3.75 -7.753906 4.347656 -7.539062 5.265625 -7.3125 L 7.265625 -6.796875 C 8.472656 -6.492188 9.335938 -6.101562 9.859375 -5.625 C 10.378906 -5.15625 10.640625 -4.492188 10.640625 -3.640625 C 10.640625 -2.453125 10.207031 -1.488281 9.34375 -0.75 C 8.476562 -0.0195312 7.320312 0.34375 5.875 0.34375 C 4.195312 0.34375 2.925781 -0.00390625 2.0625 -0.703125 C 1.195312 -1.398438 0.753906 -2.453125 0.734375 -3.859375 L 2.6875 -3.859375 C 2.71875 -3.023438 2.992188 -2.40625 3.515625 -2 C 4.035156 -1.601562 4.816406 -1.40625 5.859375 -1.40625 C 6.703125 -1.40625 7.375 -1.570312 7.875 -1.90625 C 8.375 -2.238281 8.625 -2.707031 8.625 -3.3125 C 8.625 -3.738281 8.460938 -4.078125 8.140625 -4.328125 C 7.816406 -4.585938 7.179688 -4.820312 6.234375 -5.03125 L 3.890625 -5.609375 C 2.929688 -5.847656 2.222656 -6.203125 1.765625 -6.671875 C 1.316406 -7.148438 1.09375 -7.769531 1.09375 -8.53125 C 1.09375 -9.707031 1.515625 -10.640625 2.359375 -11.328125 C 3.210938 -12.023438 4.316406 -12.375 5.671875 -12.375 C 7.128906 -12.375 8.242188 -12.019531 9.015625 -11.3125 C 9.785156 -10.601562 10.195312 -9.695312 10.25 -8.59375 Z M 8.296875 -8.59375 "/></g></g></g><g fill="#135f73" fill-opacity="1"><g transform="translate(145.712676, 204.041178)"><g><path d="M 9.765625 -6.96875 C 9.660156 -8.269531 9.316406 -9.191406 8.734375 -9.734375 C 8.148438 -10.273438 7.375 -10.546875 6.40625 -10.546875 C 5.425781 -10.546875 4.632812 -10.203125 4.03125 -9.515625 C 3.425781 -8.828125 3.109375 -7.976562 3.078125 -6.96875 Z M 11.6875 -3.765625 C 11.46875 -2.523438 10.859375 -1.5 9.859375 -0.6875 C 8.984375 0 7.832031 0.351562 6.40625 0.375 C 4.726562 0.351562 3.394531 -0.195312 2.40625 -1.28125 C 1.414062 -2.375 0.921875 -3.835938 0.921875 -5.671875 C 0.921875 -7.785156 1.425781 -9.429688 2.4375 -10.609375 C 3.457031 -11.785156 4.875 -12.375 6.6875 -12.375 C 8.3125 -12.375 9.578125 -11.765625 10.484375 -10.546875 C 11.398438 -9.335938 11.859375 -7.609375 11.859375 -5.359375 L 3.078125 -5.359375 C 3.078125 -4.097656 3.367188 -3.125 3.953125 -2.4375 C 4.535156 -1.75 5.410156 -1.40625 6.578125 -1.40625 C 7.398438 -1.40625 8.101562 -1.648438 8.6875 -2.140625 C 9.28125 -2.640625 9.609375 -3.179688 9.671875 -3.765625 Z M 11.6875 -3.765625 "/></g></g></g><g fill="#135f73" fill-opacity="1"><g transform="translate(158.448438, 204.041178)"><g><path d="M 1.515625 -12.015625 L 3.421875 -12.015625 L 3.421875 -10.328125 L 3.46875 -10.328125 C 4.375 -11.691406 5.585938 -12.375 7.109375 -12.375 C 8.609375 -12.375 9.671875 -11.722656 10.296875 -10.421875 C 10.878906 -11.117188 11.4375 -11.617188 11.96875 -11.921875 C 12.507812 -12.222656 13.175781 -12.375 13.96875 -12.375 C 15.007812 -12.375 15.890625 -12.03125 16.609375 -11.34375 C 17.335938 -10.664062 17.703125 -9.65625 17.703125 -8.3125 L 17.703125 0 L 15.671875 0 L 15.671875 -7.765625 C 15.671875 -8.703125 15.492188 -9.398438 15.140625 -9.859375 C 14.796875 -10.316406 14.226562 -10.546875 13.4375 -10.546875 C 12.644531 -10.546875 11.972656 -10.222656 11.421875 -9.578125 C 10.878906 -8.941406 10.609375 -8.191406 10.609375 -7.328125 L 10.609375 0 L 8.59375 0 L 8.59375 -8.3125 C 8.59375 -9.007812 8.429688 -9.554688 8.109375 -9.953125 C 7.785156 -10.347656 7.320312 -10.546875 6.71875 -10.546875 C 5.75 -10.546875 4.972656 -10.1875 4.390625 -9.46875 C 3.816406 -8.75 3.53125 -7.773438 3.53125 -6.546875 L 3.53125 0 L 1.515625 0 Z M 1.515625 -12.015625 "/></g></g></g><g fill="#135f73" fill-opacity="1"><g transform="translate(177.524022, 204.041178)"><g/></g></g><g fill="#135f73" fill-opacity="1"><g transform="translate(183.134487, 204.041178)"><g><path d="M 1.515625 -14.203125 L 1.515625 -16.5 L 3.53125 -16.5 L 3.53125 -14.203125 Z M 3.53125 0 L 1.515625 0 L 1.515625 -12.015625 L 3.53125 -12.015625 Z M 3.53125 0 "/></g></g></g><g fill="#135f73" fill-opacity="1"><g transform="translate(188.195133, 204.041178)"><g><path d="M 11.3125 0 L 9.28125 0 L 9.28125 -7.390625 C 9.28125 -8.535156 9.082031 -9.347656 8.6875 -9.828125 C 8.289062 -10.304688 7.632812 -10.546875 6.71875 -10.546875 C 5.8125 -10.546875 5.050781 -10.203125 4.4375 -9.515625 C 3.832031 -8.828125 3.53125 -7.835938 3.53125 -6.546875 L 3.53125 0 L 1.515625 0 L 1.515625 -12.015625 L 3.421875 -12.015625 L 3.421875 -10.328125 L 3.46875 -10.328125 C 4.414062 -11.691406 5.628906 -12.375 7.109375 -12.375 C 8.460938 -12.375 9.5 -12.007812 10.21875 -11.28125 C 10.945312 -10.5625 11.3125 -9.53125 11.3125 -8.1875 Z M 11.3125 0 "/></g></g></g><g fill="#135f73" fill-opacity="1"><g transform="translate(200.874785, 204.041178)"><g><path d="M 3.953125 -10.34375 L 3.953125 0 L 1.9375 0 L 1.9375 -10.34375 L 0.28125 -10.34375 L 0.28125 -12.015625 L 1.9375 -12.015625 L 1.9375 -14.078125 C 1.9375 -14.984375 2.207031 -15.648438 2.75 -16.078125 C 3.300781 -16.515625 4.070312 -16.734375 5.0625 -16.734375 C 5.394531 -16.734375 5.695312 -16.71875 5.96875 -16.6875 L 5.96875 -14.875 C 5.726562 -14.90625 5.457031 -14.921875 5.15625 -14.921875 C 4.707031 -14.921875 4.394531 -14.804688 4.21875 -14.578125 C 4.039062 -14.359375 3.953125 -14.003906 3.953125 -13.515625 L 3.953125 -12.015625 L 5.96875 -12.015625 L 5.96875 -10.34375 Z M 3.953125 -10.34375 "/></g></g></g><g fill="#135f73" fill-opacity="1"><g transform="translate(207.237059, 204.041178)"><g><path d="M 2.921875 -6.03125 C 2.921875 -4.6875 3.222656 -3.582031 3.828125 -2.71875 C 4.429688 -1.851562 5.289062 -1.421875 6.40625 -1.421875 C 7.5625 -1.421875 8.4375 -1.875 9.03125 -2.78125 C 9.632812 -3.6875 9.9375 -4.769531 9.9375 -6.03125 C 9.9375 -7.300781 9.632812 -8.378906 9.03125 -9.265625 C 8.4375 -10.148438 7.5625 -10.59375 6.40625 -10.59375 C 5.332031 -10.59375 4.484375 -10.175781 3.859375 -9.34375 C 3.234375 -8.507812 2.921875 -7.40625 2.921875 -6.03125 Z M 0.859375 -6.03125 C 0.859375 -7.8125 1.351562 -9.3125 2.34375 -10.53125 C 3.34375 -11.757812 4.695312 -12.375 6.40625 -12.375 C 8.15625 -12.375 9.523438 -11.753906 10.515625 -10.515625 C 11.503906 -9.273438 12 -7.78125 12 -6.03125 C 12 -4.257812 11.507812 -2.753906 10.53125 -1.515625 C 9.550781 -0.273438 8.175781 0.34375 6.40625 0.34375 C 4.707031 0.34375 3.359375 -0.253906 2.359375 -1.453125 C 1.359375 -2.660156 0.859375 -4.1875 0.859375 -6.03125 Z M 0.859375 -6.03125 "/></g></g></g><g fill="#135f73" fill-opacity="1"><g transform="translate(220.085031, 204.041178)"><g><path d="M 3.53125 0 L 1.515625 0 L 1.515625 -12.015625 L 3.421875 -12.015625 L 3.421875 -10.015625 L 3.46875 -10.015625 C 4.34375 -11.585938 5.46875 -12.375 6.84375 -12.375 C 7.0625 -12.375 7.238281 -12.347656 7.375 -12.296875 L 7.375 -10.203125 L 6.625 -10.203125 C 5.71875 -10.203125 4.972656 -9.894531 4.390625 -9.28125 C 3.816406 -8.664062 3.53125 -7.898438 3.53125 -6.984375 Z M 3.53125 0 "/></g></g></g><g fill="#135f73" fill-opacity="1"><g transform="translate(227.569398, 204.041178)"><g><path d="M 1.515625 -12.015625 L 3.421875 -12.015625 L 3.421875 -10.328125 L 3.46875 -10.328125 C 4.375 -11.691406 5.585938 -12.375 7.109375 -12.375 C 8.609375 -12.375 9.671875 -11.722656 10.296875 -10.421875 C 10.878906 -11.117188 11.4375 -11.617188 11.96875 -11.921875 C 12.507812 -12.222656 13.175781 -12.375 13.96875 -12.375 C 15.007812 -12.375 15.890625 -12.03125 16.609375 -11.34375 C 17.335938 -10.664062 17.703125 -9.65625 17.703125 -8.3125 L 17.703125 0 L 15.671875 0 L 15.671875 -7.765625 C 15.671875 -8.703125 15.492188 -9.398438 15.140625 -9.859375 C 14.796875 -10.316406 14.226562 -10.546875 13.4375 -10.546875 C 12.644531 -10.546875 11.972656 -10.222656 11.421875 -9.578125 C 10.878906 -8.941406 10.609375 -8.191406 10.609375 -7.328125 L 10.609375 0 L 8.59375 0 L 8.59375 -8.3125 C 8.59375 -9.007812 8.429688 -9.554688 8.109375 -9.953125 C 7.785156 -10.347656 7.320312 -10.546875 6.71875 -10.546875 C 5.75 -10.546875 4.972656 -10.1875 4.390625 -9.46875 C 3.816406 -8.75 3.53125 -7.773438 3.53125 -6.546875 L 3.53125 0 L 1.515625 0 Z M 1.515625 -12.015625 "/></g></g></g><g fill="#135f73" fill-opacity="1"><g transform="translate(246.644981, 204.041178)"><g><path d="M 8.828125 -6.140625 C 8.671875 -5.984375 8.375 -5.851562 7.9375 -5.75 C 7.5 -5.65625 6.679688 -5.53125 5.484375 -5.375 C 4.597656 -5.269531 3.945312 -5.050781 3.53125 -4.71875 C 3.125 -4.394531 2.921875 -3.960938 2.921875 -3.421875 C 2.921875 -2.765625 3.09375 -2.25 3.4375 -1.875 C 3.789062 -1.507812 4.351562 -1.328125 5.125 -1.328125 C 6.09375 -1.328125 6.953125 -1.601562 7.703125 -2.15625 C 8.453125 -2.707031 8.828125 -3.375 8.828125 -4.15625 Z M 1.421875 -8.359375 C 1.472656 -9.710938 1.914062 -10.71875 2.75 -11.375 C 3.582031 -12.039062 4.796875 -12.375 6.390625 -12.375 C 7.660156 -12.375 8.722656 -12.082031 9.578125 -11.5 C 10.441406 -10.925781 10.875 -10.097656 10.875 -9.015625 L 10.875 -2.09375 C 10.875 -1.613281 11.085938 -1.375 11.515625 -1.375 C 11.679688 -1.375 11.898438 -1.40625 12.171875 -1.46875 L 12.171875 0 C 11.804688 0.144531 11.425781 0.21875 11.03125 0.21875 C 10.34375 0.21875 9.828125 0.0703125 9.484375 -0.21875 C 9.148438 -0.507812 8.976562 -0.972656 8.96875 -1.609375 C 7.8125 -0.304688 6.363281 0.34375 4.625 0.34375 C 3.488281 0.34375 2.578125 0.0234375 1.890625 -0.609375 C 1.203125 -1.253906 0.859375 -2.09375 0.859375 -3.125 C 0.859375 -4.1875 1.15625 -5.039062 1.75 -5.6875 C 2.351562 -6.34375 3.222656 -6.738281 4.359375 -6.875 L 7.9375 -7.3125 C 8.582031 -7.40625 8.90625 -7.878906 8.90625 -8.734375 C 8.90625 -9.359375 8.671875 -9.835938 8.203125 -10.171875 C 7.734375 -10.515625 7.023438 -10.6875 6.078125 -10.6875 C 5.222656 -10.6875 4.570312 -10.5 4.125 -10.125 C 3.675781 -9.75 3.40625 -9.160156 3.3125 -8.359375 Z M 6.875 -13.625 L 5.359375 -13.625 L 6.984375 -16.875 L 9.40625 -16.875 Z M 6.875 -13.625 "/></g></g></g><g fill="#135f73" fill-opacity="1"><g transform="translate(259.268535, 204.041178)"><g><path d="M 3.953125 -10.34375 L 3.953125 -2.53125 C 3.953125 -2.21875 4.035156 -1.976562 4.203125 -1.8125 C 4.367188 -1.65625 4.671875 -1.578125 5.109375 -1.578125 L 5.875 -1.578125 L 5.875 0 C 5.144531 0.101562 4.640625 0.15625 4.359375 0.15625 C 3.515625 0.15625 2.898438 -0.046875 2.515625 -0.453125 C 2.128906 -0.859375 1.9375 -1.507812 1.9375 -2.40625 L 1.9375 -10.34375 L 0.296875 -10.34375 L 0.296875 -12.015625 L 1.9375 -12.015625 L 1.9375 -15.375 L 3.953125 -15.375 L 3.953125 -12.015625 L 5.875 -12.015625 L 5.875 -10.34375 Z M 3.953125 -10.34375 "/></g></g></g><g fill="#135f73" fill-opacity="1"><g transform="translate(265.630809, 204.041178)"><g><path d="M 1.515625 -14.203125 L 1.515625 -16.5 L 3.53125 -16.5 L 3.53125 -14.203125 Z M 3.53125 0 L 1.515625 0 L 1.515625 -12.015625 L 3.53125 -12.015625 Z M 3.53125 0 "/></g></g></g><g fill="#135f73" fill-opacity="1"><g transform="translate(270.691454, 204.041178)"><g><path d="M 9.109375 -7.984375 C 8.804688 -9.691406 7.851562 -10.546875 6.25 -10.546875 C 5.257812 -10.546875 4.457031 -10.144531 3.84375 -9.34375 C 3.238281 -8.550781 2.9375 -7.445312 2.9375 -6.03125 C 2.9375 -4.476562 3.21875 -3.316406 3.78125 -2.546875 C 4.34375 -1.785156 5.160156 -1.40625 6.234375 -1.40625 C 6.953125 -1.40625 7.570312 -1.664062 8.09375 -2.1875 C 8.613281 -2.71875 8.953125 -3.40625 9.109375 -4.25 L 11.046875 -4.25 C 10.847656 -2.757812 10.320312 -1.617188 9.46875 -0.828125 C 8.625 -0.046875 7.53125 0.34375 6.1875 0.34375 C 4.601562 0.34375 3.304688 -0.191406 2.296875 -1.265625 C 1.285156 -2.347656 0.78125 -3.816406 0.78125 -5.671875 C 0.78125 -7.710938 1.285156 -9.335938 2.296875 -10.546875 C 3.304688 -11.765625 4.722656 -12.375 6.546875 -12.375 C 7.878906 -12.375 8.941406 -11.972656 9.734375 -11.171875 C 10.523438 -10.378906 10.960938 -9.316406 11.046875 -7.984375 Z M 9.109375 -7.984375 "/></g></g></g><g fill="#135f73" fill-opacity="1"><g transform="translate(282.473432, 204.041178)"><g><path d="M 8.828125 -6.140625 C 8.671875 -5.984375 8.375 -5.851562 7.9375 -5.75 C 7.5 -5.65625 6.679688 -5.53125 5.484375 -5.375 C 4.597656 -5.269531 3.945312 -5.050781 3.53125 -4.71875 C 3.125 -4.394531 2.921875 -3.960938 2.921875 -3.421875 C 2.921875 -2.765625 3.09375 -2.25 3.4375 -1.875 C 3.789062 -1.507812 4.351562 -1.328125 5.125 -1.328125 C 6.09375 -1.328125 6.953125 -1.601562 7.703125 -2.15625 C 8.453125 -2.707031 8.828125 -3.375 8.828125 -4.15625 Z M 1.421875 -8.359375 C 1.472656 -9.710938 1.914062 -10.71875 2.75 -11.375 C 3.582031 -12.039062 4.796875 -12.375 6.390625 -12.375 C 7.660156 -12.375 8.722656 -12.082031 9.578125 -11.5 C 10.441406 -10.925781 10.875 -10.097656 10.875 -9.015625 L 10.875 -2.09375 C 10.875 -1.613281 11.085938 -1.375 11.515625 -1.375 C 11.679688 -1.375 11.898438 -1.40625 12.171875 -1.46875 L 12.171875 0 C 11.804688 0.144531 11.425781 0.21875 11.03125 0.21875 C 10.34375 0.21875 9.828125 0.0703125 9.484375 -0.21875 C 9.148438 -0.507812 8.976562 -0.972656 8.96875 -1.609375 C 7.8125 -0.304688 6.363281 0.34375 4.625 0.34375 C 3.488281 0.34375 2.578125 0.0234375 1.890625 -0.609375 C 1.203125 -1.253906 0.859375 -2.09375 0.859375 -3.125 C 0.859375 -4.1875 1.15625 -5.039062 1.75 -5.6875 C 2.351562 -6.34375 3.222656 -6.738281 4.359375 -6.875 L 7.9375 -7.3125 C 8.582031 -7.40625 8.90625 -7.878906 8.90625 -8.734375 C 8.90625 -9.359375 8.671875 -9.835938 8.203125 -10.171875 C 7.734375 -10.515625 7.023438 -10.6875 6.078125 -10.6875 C 5.222656 -10.6875 4.570312 -10.5 4.125 -10.125 C 3.675781 -9.75 3.40625 -9.160156 3.3125 -8.359375 Z M 1.421875 -8.359375 "/></g></g></g><g fill="#135f73" fill-opacity="1"><g transform="translate(295.096986, 204.041178)"><g/></g></g><g fill="#135f73" fill-opacity="1"><g transform="translate(300.716576, 204.041178)"><g><path d="M 14.921875 -5.765625 C 14.472656 -3.691406 13.585938 -2.140625 12.265625 -1.109375 C 10.941406 -0.078125 9.265625 0.4375 7.234375 0.4375 C 5.347656 0.4375 3.898438 0.0664062 2.890625 -0.671875 C 1.890625 -1.410156 1.390625 -2.484375 1.390625 -3.890625 C 1.390625 -4.421875 1.453125 -4.988281 1.578125 -5.59375 L 3.890625 -16.5 L 7.421875 -16.5 L 5.15625 -5.796875 C 5.070312 -5.398438 5.03125 -5.046875 5.03125 -4.734375 C 5.03125 -3.984375 5.238281 -3.421875 5.65625 -3.046875 C 6.082031 -2.671875 6.707031 -2.484375 7.53125 -2.484375 C 8.539062 -2.484375 9.378906 -2.742188 10.046875 -3.265625 C 10.710938 -3.785156 11.160156 -4.578125 11.390625 -5.640625 L 13.6875 -16.5 L 17.203125 -16.5 Z M 14.921875 -5.765625 "/></g></g></g><g fill="#135f73" fill-opacity="1"><g transform="translate(317.27867, 204.041178)"><g><path d="M 11.390625 0 L 8.171875 0 L 9.78125 -7.59375 C 9.84375 -7.882812 9.875 -8.148438 9.875 -8.390625 C 9.875 -8.878906 9.742188 -9.242188 9.484375 -9.484375 C 9.234375 -9.722656 8.851562 -9.84375 8.34375 -9.84375 C 7.539062 -9.84375 6.828125 -9.554688 6.203125 -8.984375 C 5.585938 -8.421875 5.171875 -7.609375 4.953125 -6.546875 L 3.5625 0 L 0.34375 0 L 2.9375 -12.234375 L 6.03125 -12.234375 L 5.640625 -10.4375 L 5.6875 -10.4375 C 6.925781 -11.84375 8.316406 -12.546875 9.859375 -12.546875 C 10.929688 -12.546875 11.769531 -12.269531 12.375 -11.71875 C 12.988281 -11.164062 13.296875 -10.410156 13.296875 -9.453125 C 13.296875 -9.160156 13.238281 -8.738281 13.125 -8.1875 Z M 11.390625 0 "/></g></g></g><g fill="#135f73" fill-opacity="1"><g transform="translate(331.304834, 204.041178)"><g><path d="M 6.46875 -13.6875 L 3.25 -13.6875 L 3.890625 -16.671875 L 7.109375 -16.671875 Z M 6.15625 -12.234375 L 3.5625 0 L 0.34375 0 L 2.9375 -12.234375 Z M 6.15625 -12.234375 "/></g></g></g><g fill="#135f73" fill-opacity="1"><g transform="translate(337.667108, 204.041178)"><g><path d="M 3.890625 0 L 0.453125 0 L 3.953125 -16.5 L 15.6875 -16.5 L 15.078125 -13.578125 L 6.78125 -13.578125 L 6 -9.859375 L 13.25 -9.859375 L 12.625 -6.9375 L 5.359375 -6.9375 Z M 3.890625 0 "/></g></g></g><g fill="#135f73" fill-opacity="1"><g transform="translate(351.592289, 204.041178)"><g><path d="M 6.46875 -13.6875 L 3.25 -13.6875 L 3.890625 -16.671875 L 7.109375 -16.671875 Z M 6.15625 -12.234375 L 3.5625 0 L 0.34375 0 L 2.9375 -12.234375 Z M 6.15625 -12.234375 "/></g></g></g><g fill="#135f73" fill-opacity="1"><g transform="translate(357.954563, 204.041178)"><g><path d="M 3.5625 0 L 0.34375 0 L 3.84375 -16.5 L 7.0625 -16.5 Z M 3.5625 0 "/></g></g></g></svg>